<svg version="1.1" id="Layer_1" xmlns="http://www.w3.org/2000/svg" xmlns:xlink="http://www.w3.org/1999/xlink" x="0px" y="0px"
	 width="100%" viewBox="0 0 793 206" enable-background="new 0 0 793 206" xml:space="preserve">
<path fill="#014D85" opacity="1.000000" stroke="none" 
	d="
M390.270630,206.743103 
	C386.307098,207.000000 382.614166,207.000000 378.460632,207.000000 
	C377.219971,203.984070 374.587189,201.727600 374.419983,198.067047 
	C374.249756,197.217545 374.137421,196.735962 373.905792,195.903351 
	C372.315674,191.898758 374.397461,187.626205 371.687378,184.131561 
	C370.519592,182.625732 369.374451,181.507980 366.991333,181.659485 
	C365.550812,180.894913 364.759033,179.856186 363.466309,178.772995 
	C361.890106,177.083344 363.239136,175.231506 361.899933,173.435699 
	C359.442413,170.140320 356.937469,170.877899 353.650543,171.850616 
	C353.041748,171.610748 352.817413,171.486664 352.284576,171.156921 
	C349.488708,169.440536 346.947479,168.032578 343.918274,166.743271 
	C341.312927,165.463028 338.915222,164.821808 335.960876,164.541214 
	C334.014709,164.428986 332.149719,164.673798 331.146851,163.769897 
	C327.778259,160.733810 324.311646,161.116821 321.025391,163.318100 
	C317.765228,165.501892 316.437103,169.067017 315.542053,172.830795 
	C314.235687,178.324203 316.283051,183.232147 317.759125,188.293839 
	C318.236755,189.931595 318.786377,191.698730 317.791077,193.490921 
	C316.585785,195.661194 313.826874,195.694244 311.966339,193.237885 
	C306.633789,186.197586 300.937408,179.480621 294.512573,173.417847 
	C291.966248,171.015015 291.208374,168.263519 291.795105,164.907974 
	C292.625061,160.161057 292.665619,155.412369 292.123199,150.589386 
	C291.594666,145.889481 290.223602,141.951523 285.277710,139.660828 
	C284.295105,139.301910 283.935120,138.854996 283.654633,137.849335 
	C283.907074,135.388351 283.449371,133.735153 281.738892,132.306030 
	C279.386841,130.340851 277.305664,128.049500 275.135010,125.891953 
	C273.250305,124.018608 271.601013,123.675476 268.952240,124.620636 
	C268.279053,124.339005 268.041443,124.150711 267.506470,123.608841 
	C267.137482,118.434700 262.776733,117.622360 259.779938,116.222504 
	C256.974060,114.911842 253.463959,114.940422 250.263596,114.380356 
	C247.612915,113.916481 247.322952,116.500351 245.702789,118.063423 
	C244.419876,118.432915 243.551300,118.557701 242.313721,118.853302 
	C238.679184,119.556747 235.024338,119.497055 233.729919,124.069626 
	C233.274323,124.588409 233.089752,124.805603 232.530762,125.243546 
	C228.361282,126.970024 224.519272,127.889465 220.340973,127.498398 
	C215.008499,126.999275 213.631790,125.767937 213.701492,120.145966 
	C213.875732,106.092850 205.338379,96.824257 195.738770,88.521233 
	C191.300446,84.682396 186.684769,80.122597 179.876251,80.401909 
	C179.035767,80.436394 178.324814,79.856079 177.627777,79.400978 
	C170.228607,74.570007 162.773102,75.820976 155.519638,79.551361 
	C152.620483,81.042358 150.727707,83.544739 153.221939,87.531494 
	C153.076126,88.631210 152.898819,89.243477 152.612900,90.306961 
	C148.015533,100.339005 140.995575,99.783867 135.168777,96.221710 
	C131.973022,94.268021 132.179352,91.405571 135.461823,89.501656 
	C145.295273,83.798027 146.821396,75.264847 141.085709,65.558128 
	C136.236740,57.352070 130.535110,50.383377 122.734161,44.871300 
	C118.530602,41.901104 114.453606,40.323898 109.020966,41.515076 
	C107.618103,40.801334 106.617767,40.287178 105.158844,39.894943 
	C102.102348,39.182446 99.361572,39.409039 96.282455,39.291763 
	C94.944832,39.154865 93.962601,39.106880 92.599640,39.226799 
	C90.900513,39.455097 89.726929,39.279404 88.504135,38.550568 
	C85.752136,36.910267 84.207970,37.903515 83.939819,41.394436 
	C83.972321,42.238537 84.016258,42.716396 84.073997,43.547859 
	C80.044769,46.653564 83.016083,49.641750 83.882812,52.923874 
	C84.518974,54.930016 84.978584,56.585773 85.811081,58.591255 
	C86.853745,61.443100 82.395851,62.203403 84.045006,64.620956 
	C86.770981,68.617043 89.471031,72.688080 93.296394,75.773827 
	C95.695450,77.709045 98.063934,79.684128 100.679184,81.352348 
	C102.611778,82.585091 103.546272,84.475327 102.957298,86.793732 
	C102.350075,89.183945 100.489479,89.951385 98.220917,90.363831 
	C92.319473,91.436760 88.344109,87.428482 85.597000,83.850960 
	C82.326050,79.591248 78.149643,76.800941 74.080399,73.987587 
	C67.436111,69.393929 60.312885,65.422363 52.117596,63.848782 
	C45.550934,62.587910 39.181786,63.706749 33.348427,66.146767 
	C28.623768,68.123024 26.449389,73.111115 24.516870,77.876900 
	C23.362274,80.724251 22.585413,83.700623 22.793566,86.566635 
	C23.010181,89.549149 21.541664,90.981995 19.414616,91.141174 
	C13.957732,91.549553 9.561175,93.898392 5.539479,97.314774 
	C4.344414,98.329948 3.096951,99.178581 1.329787,97.329361 
	C1.000000,93.638710 1.000000,90.277428 1.000000,86.458069 
	C2.092922,83.723122 4.380201,83.327904 6.430757,82.601791 
	C15.522426,79.382408 18.142843,73.949753 15.175785,64.700165 
	C15.025716,64.232330 14.770761,63.526787 14.814154,63.091953 
	C15.239326,58.831257 12.459232,57.658833 8.896524,56.601822 
	C8.535171,56.021263 8.402872,55.790737 8.067873,55.233582 
	C6.975137,53.303844 6.090321,51.697548 4.777337,49.911629 
	C3.596036,48.249687 2.654204,46.886417 2.423513,44.841621 
	C2.144585,43.822479 1.858871,43.165016 1.252934,42.265366 
	C1.000000,29.275408 1.041928,16.550539 0.957542,3.826507 
	C0.943933,1.774577 0.960483,0.618771 3.636261,0.918980 
	C6.737064,1.266875 9.906841,1.000000 13.523338,1.000000 
	C16.226698,2.653640 16.434868,4.388930 14.610709,6.618476 
	C11.844736,9.999138 11.722321,13.906190 12.815249,17.988945 
	C13.950686,22.230492 15.637223,26.259020 18.440544,29.600521 
	C26.404644,39.093563 35.852547,46.497757 48.146618,49.620186 
	C51.585850,50.493675 55.060276,50.722893 58.544434,50.004517 
	C67.692596,48.118305 71.236656,41.616470 67.764328,32.833992 
	C64.360092,24.223755 58.329353,17.622627 51.114586,12.048651 
	C48.086002,9.708828 44.782330,7.741324 41.579105,5.640841 
	C40.011059,4.612611 38.211819,3.576100 40.747383,1.253462 
	C50.020893,1.000000 59.041790,1.000000 68.531342,1.000000 
	C76.394089,4.265953 82.707947,9.772689 91.337631,10.523048 
	C99.501114,11.232870 105.528328,8.747056 109.741058,1.258999 
	C138.020889,1.000000 166.041794,1.000000 194.531342,1.000000 
	C200.896973,5.663271 204.878296,12.194547 210.880341,16.840704 
	C217.937119,22.303349 225.596130,25.690462 234.491684,26.258186 
	C239.442261,26.574139 244.370117,26.294035 247.507416,21.831026 
	C250.633545,17.383942 249.246124,12.691502 247.368301,8.075075 
	C246.533936,6.023873 243.739166,4.086823 246.746124,1.254622 
	C248.066666,1.000000 249.133347,1.000000 250.600006,1.000000 
	C256.184662,4.361365 256.362823,10.021359 257.125153,15.199546 
	C257.619202,18.555338 258.889984,20.332134 262.540527,20.760426 
	C264.545776,21.969028 264.482330,23.723999 264.556671,25.360640 
	C265.359650,43.035259 286.692261,61.488564 303.833374,63.238415 
	C309.286987,63.795143 314.894989,63.452080 318.021759,58.155151 
	C321.438232,52.367439 320.541382,46.201122 317.289429,40.561516 
	C312.589386,32.410591 305.484680,26.713209 297.383240,22.182970 
	C294.482147,20.560713 291.480774,19.119570 288.516144,17.617407 
	C286.343292,16.516430 285.786407,14.978902 286.574097,12.441822 
	C287.835754,9.948086 289.703796,10.646648 291.451996,10.974623 
	C302.801361,13.103839 326.091278,31.804556 328.049652,47.991150 
	C328.249298,49.641407 328.771454,51.327950 328.432495,52.927521 
	C327.542419,57.128212 328.572418,59.684200 333.684631,59.725693 
	C335.968292,60.620487 335.458282,62.089352 335.214722,63.601990 
	C333.909637,71.707840 336.674530,78.897163 341.486359,84.980095 
	C348.480774,93.822128 357.074738,100.807686 368.268860,103.994102 
	C371.674408,104.963486 375.038818,105.667274 378.570587,105.162422 
	C387.298492,103.914818 391.444092,97.479408 389.078735,88.973396 
	C388.390411,86.498055 386.785858,84.018326 389.020386,81.149384 
	C391.951172,79.424614 393.616974,80.475090 394.789032,82.981712 
	C398.835663,91.636147 398.889435,99.997604 393.010681,107.932991 
	C392.119934,109.135376 391.073639,110.227051 390.390015,111.574654 
	C388.588074,115.126701 389.167603,118.072525 392.563080,120.216026 
	C399.431580,124.551979 406.573853,128.421722 412.929810,133.584183 
	C421.258789,140.349213 429.642731,146.616699 434.500061,156.981384 
	C437.613892,163.625717 439.235413,169.779099 438.105835,176.830475 
	C440.976868,165.511887 445.756561,162.721771 457.329834,163.673325 
	C471.981140,164.877945 484.054993,171.021423 494.667419,180.739563 
	C499.285278,184.968216 502.388611,190.284927 505.509399,195.584824 
	C506.557281,197.364441 506.672150,199.382355 505.873535,201.736923 
	C502.313812,203.808151 500.320190,202.448929 498.613586,199.334885 
	C491.767731,186.843369 481.474243,178.433517 467.931885,174.001160 
	C464.433899,172.856293 460.884094,172.134644 457.173004,172.418716 
	C448.278137,173.099579 443.816376,179.420380 446.395599,187.985336 
	C447.943878,193.126678 450.986633,197.525375 454.004456,201.901611 
	C454.996155,203.339706 456.776947,204.674713 454.261414,206.737488 
	C447.645599,207.000000 441.291199,207.000000 434.468384,207.000000 
	C424.378235,203.749557 414.991180,199.477493 404.394135,200.709930 
	C399.189392,201.315216 395.006134,204.198563 390.270630,206.743103 
z"/>
<path fill="#005089" opacity="1.000000" stroke="none" 
	d="
M108.729523,37.271095 
	C126.594498,41.662842 137.508133,53.816418 144.921753,69.597481 
	C148.233017,76.645988 145.701172,85.131142 139.972778,89.136162 
	C138.463898,90.191116 135.702347,90.839912 136.674286,93.362671 
	C137.537170,95.602364 140.122803,95.612411 142.290848,95.772675 
	C146.217896,96.062958 147.460953,92.716988 149.744919,90.221436 
	C153.491959,90.091286 153.546463,93.298546 154.190460,95.337303 
	C158.908936,110.275124 169.516205,119.534927 183.118591,125.976959 
	C188.221680,128.393768 193.701736,128.928619 199.253006,128.242020 
	C205.853561,127.425644 209.105331,123.196800 208.688461,116.480942 
	C208.250885,109.431549 204.585800,103.832047 200.323532,98.703171 
	C192.910446,89.782860 183.675659,83.426674 172.117050,81.130325 
	C165.335892,79.783112 158.713654,79.648399 154.470596,86.742004 
	C153.642197,88.126938 152.745865,89.862572 150.300293,88.197372 
	C149.710312,81.637894 153.712540,77.069008 161.595673,75.514122 
	C166.847076,74.478325 171.934372,75.145714 177.191406,76.987907 
	C185.119781,79.766197 192.535538,83.095390 198.751663,88.824753 
	C204.286682,93.926353 208.776093,99.877480 212.699966,106.251190 
	C214.379929,108.980011 214.855713,112.118782 215.001938,115.330688 
	C215.416763,124.443115 218.627655,126.716454 227.472916,124.276657 
	C228.430252,124.012589 229.348083,123.605347 230.641815,123.132263 
	C233.604660,123.207161 233.289200,125.268814 233.439102,126.951645 
	C234.885132,143.184158 243.795731,154.025253 257.937714,161.204620 
	C262.532135,163.537048 267.014679,165.934052 272.224854,166.789062 
	C277.454926,167.647339 282.302338,167.420639 285.879944,163.062271 
	C289.428619,158.739212 288.761719,153.770844 287.221924,148.851776 
	C286.523651,146.620926 285.029602,144.751984 284.202515,142.589020 
	C283.560699,140.910553 282.984100,139.068970 285.630890,137.984390 
	C291.637299,139.886032 293.054718,144.737137 293.722076,149.729675 
	C294.246460,153.652740 294.195282,157.703430 293.938293,161.667496 
	C293.612915,166.686981 294.930084,170.956635 298.884857,174.051071 
	C305.084045,178.901611 308.731384,186.029831 314.677277,191.607407 
	C316.541412,189.198257 315.390411,186.956161 314.927948,184.868515 
	C313.916351,180.302048 312.975006,175.810486 314.358765,171.112137 
	C317.321411,161.052994 326.462524,157.023605 336.725586,161.744125 
	C337.020050,162.822037 337.027893,163.685638 336.078552,164.050308 
	C335.145691,164.408676 334.140411,164.417755 333.154205,164.520813 
	C319.997894,165.895706 315.562988,174.431091 322.123047,186.112564 
	C325.306549,191.781464 329.482788,196.736832 334.190613,201.261414 
	C335.538757,202.557083 338.113586,203.993164 335.257202,206.741760 
	C326.645782,207.000000 318.291534,207.000000 309.468658,207.000000 
	C300.548248,202.397964 292.452087,197.001083 282.781342,195.098373 
	C274.504822,193.470016 268.220093,196.058929 265.002167,202.458923 
	C264.281097,203.893051 263.828583,205.457367 262.249390,206.750519 
	C257.643097,207.000000 253.286209,207.000000 248.464661,207.000000 
	C246.143738,205.677338 246.167786,204.278259 247.379852,202.377335 
	C250.331070,197.748810 250.053162,192.714554 247.913361,187.998398 
	C239.849289,170.224991 225.879868,160.447052 206.507980,158.755295 
	C197.701782,157.986267 192.618103,163.542099 193.752151,172.382706 
	C194.940323,181.645218 200.794922,188.389999 207.147186,194.597290 
	C210.095444,197.478226 213.428528,200.040222 217.398209,201.607666 
	C219.912994,202.600662 221.121170,204.178253 218.257996,206.741882 
	C208.312439,207.000000 198.624878,207.000000 188.468658,207.000000 
	C181.140396,201.809769 175.530380,195.085220 167.467819,191.327927 
	C161.726624,188.652405 155.910385,187.322723 149.688614,187.604935 
	C141.203156,187.989807 137.405762,192.237823 137.750275,200.700195 
	C137.832718,202.725250 138.803879,204.955460 136.258957,206.740936 
	C113.979103,207.000000 91.958214,207.000000 69.468658,207.000000 
	C65.503822,205.473450 63.157249,202.635788 60.720512,199.862213 
	C53.261395,191.371902 43.666489,186.260254 33.161682,182.615555 
	C30.281586,181.616302 27.311310,181.423599 24.306690,181.624908 
	C13.539289,182.346313 8.677715,191.544785 14.181244,200.805679 
	C15.294168,202.678421 17.256283,204.421570 14.256914,206.742981 
	C9.695164,207.000000 3.817205,208.666382 1.540959,206.517532 
	C-0.608745,204.488159 1.007330,198.447327 1.003926,194.170975 
	C0.993250,180.759750 1.000000,167.348541 1.000000,153.468658 
	C2.308479,151.366867 3.792740,150.567123 6.009578,151.316605 
	C9.197007,152.394241 12.536120,152.598297 15.886027,152.374405 
	C25.591204,151.725723 30.112309,145.060898 27.340990,135.793640 
	C24.162840,125.165916 16.917900,117.788803 8.236813,111.572563 
	C5.736469,109.782166 2.988474,108.359573 1.244769,105.247360 
	C1.000000,102.629440 1.000000,100.258888 1.000000,97.444168 
	C6.491531,93.427353 11.143123,88.271156 18.403900,88.052238 
	C19.947094,88.005699 20.529600,86.580788 20.580282,85.137550 
	C20.795496,79.008911 24.380081,74.223099 27.147440,69.185669 
	C30.368874,63.321667 36.568832,63.002522 42.290184,62.086437 
	C54.992535,60.052574 65.154114,66.099678 75.003517,72.730072 
	C79.352524,75.657722 83.923416,78.356346 87.142746,82.834900 
	C88.746498,85.065956 91.443932,86.498772 94.229721,87.272308 
	C96.358238,87.863342 98.766685,88.325684 99.951332,85.877853 
	C101.072548,83.561096 99.164284,82.121780 97.477486,81.070412 
	C92.318886,77.855103 88.064400,73.859154 84.789711,68.647537 
	C83.027504,65.842995 81.870750,63.111141 82.007927,59.414078 
	C84.678474,55.857700 85.531425,58.193684 86.848625,60.399059 
	C94.831253,73.764297 106.108902,82.702011 121.617310,85.812576 
	C124.269066,86.344444 126.901672,86.265106 129.562424,85.797928 
	C137.840469,84.344437 140.739746,80.354019 139.048706,72.131538 
	C137.324310,63.746815 132.458313,57.291965 125.813118,52.147198 
	C120.948944,48.381302 116.128532,44.538101 110.308594,42.189186 
	C108.442307,41.435955 105.844261,40.343781 108.729523,37.271095 
z"/>
<path fill="#004277" opacity="1.000000" stroke="none" 
	d="
M793.744080,134.744949 
	C794.000000,142.687576 794.000000,150.375168 794.000000,158.531372 
	C792.828003,160.410034 791.694214,161.034424 789.768127,159.905273 
	C784.037781,156.545822 777.428650,155.861755 771.099426,154.921982 
	C759.111267,153.141998 750.448547,163.453491 753.168884,175.457443 
	C755.803528,187.083923 762.877136,195.225876 772.896851,201.206512 
	C774.698792,202.282089 778.399475,202.864899 775.264648,206.734070 
	C765.645752,207.000000 756.291565,207.000000 746.468628,207.000000 
	C740.759033,202.220490 735.113525,197.935562 729.581482,193.510010 
	C728.045654,192.281418 726.766174,192.547028 724.965820,193.641022 
	C719.562317,191.042206 714.205933,189.861679 708.195007,189.412643 
	C704.411804,186.749329 701.275208,187.103439 697.572388,189.105331 
	C694.712463,190.651520 694.332520,193.090256 693.502319,195.511017 
	C692.797913,197.565079 691.964478,199.587021 691.469177,201.704636 
	C690.663025,205.150772 688.409119,205.239944 685.515564,204.662704 
	C682.037476,203.968872 682.775696,201.613495 683.134460,199.381958 
	C683.776489,195.388489 686.729309,192.139343 687.002075,188.056107 
	C687.567932,179.584488 685.587708,171.864212 679.422852,165.694275 
	C670.534912,156.798981 661.535828,148.021561 653.386108,138.415695 
	C648.695923,132.887497 648.036316,124.558220 652.715027,118.378998 
	C655.634644,114.523155 655.670044,111.066544 654.709839,106.437073 
	C653.269226,99.490662 650.033020,93.677452 646.309875,87.954079 
	C644.768555,85.584717 642.953613,83.392380 639.321533,83.116028 
	C638.556641,83.002029 638.256775,82.903015 637.645569,82.453110 
	C636.873901,79.696068 636.018005,77.846634 633.495239,76.586182 
	C626.220642,72.951607 619.418701,68.198433 610.964661,67.591385 
	C607.712219,67.357849 606.201965,65.809563 606.736572,62.588120 
	C607.266418,59.394802 608.645691,57.569836 612.525085,58.034939 
	C617.094543,58.582775 621.432678,57.107689 625.654175,55.189857 
	C635.684753,50.632961 639.339966,36.011364 633.967041,27.031759 
	C632.425293,24.455172 631.763916,21.341362 630.150146,18.658426 
	C629.343445,17.317339 628.727905,16.338923 626.694336,16.226173 
	C621.688477,12.990379 618.038696,8.726276 613.677368,5.277218 
	C612.344360,4.223025 611.894531,2.918306 613.713623,1.288237 
	C620.687622,1.000000 627.375305,1.000000 634.531494,1.000000 
	C643.651550,5.253211 650.523743,12.827720 660.516113,14.600854 
	C662.972900,15.036804 665.418823,15.451045 667.910828,15.579960 
	C676.519531,16.025295 679.978333,13.601799 682.338623,5.280322 
	C682.759033,3.798269 683.290771,2.498586 684.742676,1.257302 
	C720.097534,1.000000 755.195312,1.052266 790.292297,0.912215 
	C793.499329,0.899417 794.083557,1.745421 794.074036,4.778135 
	C793.959534,41.206036 794.000000,77.634422 794.000000,114.531342 
	C792.360901,117.169006 790.784668,116.999062 789.295288,114.849739 
	C787.873047,112.797516 786.737427,110.571785 785.285950,108.524544 
	C777.615417,97.705521 766.098999,92.976051 754.156921,89.230553 
	C748.834778,87.561325 743.267212,88.671638 739.599487,93.324463 
	C735.729370,98.233826 735.734802,103.927467 738.765930,109.319412 
	C747.078308,124.105980 759.268921,133.580307 776.363647,136.088211 
	C780.613220,136.711624 784.636475,135.724472 788.588928,134.271454 
	C790.239197,133.664734 791.944946,132.435379 793.744080,134.744949 
z"/>
<path fill="#014A81" opacity="1.000000" stroke="none" 
	d="
M503.604736,201.379425 
	C503.521362,194.365356 499.230286,189.503525 495.194153,185.142014 
	C483.745117,172.769882 469.385956,166.071457 452.263977,166.136276 
	C446.311279,166.158813 443.454376,168.798828 441.239075,174.984955 
	C440.229858,177.803162 440.476013,183.299286 437.633057,182.770447 
	C434.400848,182.169235 436.258911,177.045380 436.055725,173.917953 
	C435.253693,161.572998 430.503143,151.582123 420.490936,143.820038 
	C416.508118,140.732315 412.653137,137.310028 408.864136,133.947647 
	C403.759796,129.418015 397.709229,126.744156 391.983337,123.478722 
	C385.344574,119.692688 383.837463,114.325966 389.039795,108.578979 
	C394.592041,102.445496 396.200806,95.648842 393.885376,87.806175 
	C393.263763,85.700813 392.453796,83.715210 390.291016,82.186768 
	C389.745270,81.941795 389.478363,81.893967 388.950012,81.533669 
	C386.588409,72.642876 379.502625,68.328339 373.325623,63.228828 
	C372.034546,62.162971 371.362274,63.604752 369.977966,63.849701 
	C364.764496,61.565334 359.906281,59.418369 354.805450,57.853359 
	C350.250946,56.455959 345.702606,55.955669 340.754761,57.775642 
	C337.581787,56.758251 337.924988,59.723625 336.414886,60.944031 
	C335.375397,61.844715 334.597687,61.924107 333.377075,61.212143 
	C331.967651,61.810020 330.886993,62.568016 329.927368,63.456718 
	C328.894623,64.413147 328.307861,66.329376 326.424561,65.429451 
	C324.928711,64.714684 324.802399,63.023136 324.587433,61.554981 
	C324.469025,60.746517 324.379974,59.857403 324.588226,59.088772 
	C328.481079,44.720387 320.868103,34.791058 311.280731,26.051867 
	C304.828217,20.170202 297.970825,14.449576 288.377106,13.067492 
	C287.437592,13.559572 286.889587,14.125546 286.039734,14.892529 
	C283.146301,15.741481 280.538452,15.326281 277.581451,15.399669 
	C275.084167,15.192979 273.088593,15.648896 270.819580,16.731525 
	C269.660889,17.056820 268.868042,17.146517 268.102173,16.807138 
	C264.602203,15.256281 263.803925,17.119394 263.916382,20.524662 
	C263.724182,21.462025 263.348877,21.826349 262.399902,22.006847 
	C259.850220,22.761297 259.083923,26.590277 256.542419,25.486273 
	C254.019394,24.390297 254.578690,21.092962 254.559097,18.737820 
	C254.509872,12.821939 252.661774,7.335320 251.070847,1.376931 
	C272.687561,1.000000 294.375122,1.000000 316.531342,1.000000 
	C319.726654,2.683368 321.499939,5.171219 322.899323,7.978084 
	C329.256104,20.728472 340.643707,27.301054 353.123779,32.480534 
	C355.442474,33.442848 357.993439,33.460487 360.495209,33.450722 
	C372.240326,33.404892 377.842651,24.359360 372.670990,13.732191 
	C371.286896,10.888091 369.380280,8.352077 367.593323,5.753093 
	C366.619263,4.336379 365.609222,2.972148 367.745850,1.255046 
	C369.714355,1.000000 371.428711,1.000000 373.571533,1.000000 
	C379.782532,6.822601 383.029388,13.877286 384.117096,22.635822 
	C389.640259,17.941805 395.441711,14.306913 402.204590,13.442027 
	C410.324829,12.403552 418.613586,11.676584 425.882172,17.134201 
	C428.800171,19.325190 432.222809,20.727367 435.450623,22.424980 
	C437.365692,23.432178 438.768066,24.652512 437.157227,27.338558 
	C434.079620,30.351341 431.378326,28.631760 428.758423,27.240162 
	C422.366058,23.844784 415.812073,21.155678 408.357941,21.548052 
	C405.349182,21.706429 402.377655,22.049356 399.515289,22.969908 
	C395.257477,24.339237 392.119781,27.153101 391.216766,31.525463 
	C389.694336,38.897133 390.486877,45.871902 394.722168,52.563465 
	C399.684326,60.403336 406.399445,66.053139 414.116089,70.839409 
	C421.305695,75.298744 428.983551,77.333893 437.441254,76.244225 
	C447.007355,75.011749 451.968933,69.683289 452.468750,60.099789 
	C452.588409,57.806080 452.071686,55.415783 453.643311,53.056595 
	C458.862579,52.099506 460.187103,53.018143 460.442444,57.688206 
	C460.820496,64.603310 460.510101,71.343987 455.558014,76.977539 
	C454.091309,78.646065 452.484375,79.892326 450.538391,80.936920 
	C446.163635,83.285294 445.584930,86.151321 448.370209,90.340630 
	C449.498444,92.037560 450.981476,93.344971 452.722992,94.381630 
	C466.273438,102.447533 475.635040,113.755280 480.021393,129.086090 
	C481.851013,135.480789 491.851318,139.496750 498.332947,136.359573 
	C504.330231,133.456802 510.307251,132.653885 516.708191,134.494431 
	C518.958008,135.141342 519.990662,136.343338 519.458496,139.059570 
	C518.945312,141.389893 517.348572,141.365692 515.851135,141.451584 
	C514.188782,141.546921 512.518250,141.475525 510.858490,141.634872 
	C502.850403,142.403625 498.709625,148.065231 500.470428,155.920349 
	C502.583771,165.348419 508.396179,172.279510 515.719482,178.126678 
	C520.692444,182.097321 526.098145,185.454391 532.076172,187.615021 
	C540.434570,190.635986 548.488770,190.683853 554.970703,183.359787 
	C556.344299,181.807770 557.821899,182.152298 559.789917,182.314575 
	C562.384888,187.179672 561.842590,189.601959 557.874329,192.501816 
	C555.190735,194.462875 552.133301,195.872528 549.640991,198.121262 
	C548.588379,199.070969 547.282593,199.379303 545.914734,199.087326 
	C541.536316,198.152695 536.984741,198.979584 532.614319,197.377380 
	C529.558594,196.257172 528.420532,197.849548 529.409485,201.170151 
	C529.933777,202.930344 531.868103,204.666656 529.256714,206.742188 
	C520.979126,207.000000 512.958191,207.000000 504.468628,207.000000 
	C502.238342,205.478622 501.102509,203.862900 503.604736,201.379425 
z"/>
<path fill="#00487E" opacity="1.000000" stroke="none" 
	d="
M436.244446,27.667904 
	C424.790771,17.609131 412.613617,12.130779 397.722351,17.432673 
	C392.551361,19.273745 388.197510,22.027124 385.665649,27.171001 
	C385.034790,28.452688 384.039612,29.929893 382.231812,29.479670 
	C380.687134,29.094965 380.177338,27.453663 380.461731,26.262972 
	C382.388000,18.197306 378.003601,11.849327 375.004913,5.102081 
	C374.540558,4.057315 374.389038,2.873513 374.046417,1.377004 
	C382.020905,1.000000 390.041809,1.000000 398.531372,1.000000 
	C409.089111,4.145867 419.218262,5.039302 429.712738,1.270406 
	C434.024536,1.000000 438.049103,1.000000 442.536804,1.000000 
	C444.879089,2.370477 445.399017,4.404010 445.970734,6.532905 
	C449.579254,19.970922 458.512787,29.022913 470.583191,35.029736 
	C476.796204,38.121647 483.305359,40.898510 490.709839,39.555222 
	C500.541992,37.771511 504.436127,30.528898 499.852814,21.522522 
	C497.148468,16.208406 494.361450,10.874145 489.776489,6.744025 
	C488.400116,5.504239 485.881561,3.974419 488.747009,1.253809 
	C490.388885,1.000000 491.777802,1.000000 493.583344,1.000000 
	C503.831482,7.784874 508.686462,17.362650 509.446411,29.082893 
	C509.767914,34.041359 507.714508,38.480610 505.347046,42.708115 
	C504.124908,44.890408 503.138824,47.137012 502.323730,49.502327 
	C501.473083,51.970909 502.197174,53.377895 504.686554,53.853500 
	C507.105621,54.315674 508.525238,53.247135 508.820221,50.795300 
	C509.074921,48.678043 507.872253,45.985626 511.511658,45.096394 
	C514.455811,44.711124 516.051575,45.692081 516.415344,48.366604 
	C517.541687,56.647926 522.683289,62.751362 528.313843,68.094025 
	C539.221497,78.444099 551.971985,84.013351 567.438293,80.100914 
	C568.425903,79.851074 569.407776,79.816078 570.647583,80.511238 
	C573.604492,83.490623 572.009644,85.253151 569.447510,86.496330 
	C560.364929,90.903252 551.142395,90.362251 541.911255,86.968666 
	C540.437622,86.426926 538.898071,84.547058 537.503357,86.279007 
	C536.276733,87.802200 537.675232,89.528534 538.792664,90.684479 
	C542.720154,94.747299 546.610535,98.806328 550.032959,103.342087 
	C552.593445,106.735451 556.378479,106.399651 560.118713,105.460533 
	C567.960876,103.491447 575.652771,104.679741 583.195190,106.961136 
	C585.955627,107.796104 588.621948,109.268600 587.446045,113.437241 
	C585.989258,117.267189 583.391541,115.493958 581.484497,114.861687 
	C578.002991,113.707382 574.548645,112.580704 570.898926,112.121597 
	C561.312805,110.915741 555.684692,115.945404 556.579224,125.398697 
	C557.417053,134.252365 561.781250,141.328979 568.762329,146.785370 
	C578.331177,154.264252 588.838562,159.674637 601.234375,161.611755 
	C602.477905,165.778931 601.040100,167.628036 597.023865,167.480469 
	C593.724976,167.359253 590.396667,167.852036 586.680603,166.880295 
	C594.286560,170.013428 602.413269,169.559753 609.374512,173.425461 
	C614.747986,176.409439 620.559204,178.705460 624.550476,183.653503 
	C626.040588,185.500900 628.144348,187.364838 626.317688,190.520142 
	C624.358826,192.910965 622.613281,192.086227 620.761292,190.890335 
	C617.129456,188.545181 614.029419,185.487152 610.237427,183.339478 
	C603.429749,179.483841 596.202026,177.355347 588.359436,177.555527 
	C574.214172,177.916565 567.594727,187.313324 571.941467,200.793808 
	C572.566162,202.730988 573.963501,204.720169 571.276062,206.723892 
	C559.979126,207.000000 548.958191,207.000000 537.468628,207.000000 
	C535.955811,205.840271 534.776855,205.689407 533.232910,206.763947 
	C531.933289,207.000000 530.866638,207.000000 529.399963,207.000000 
	C528.392883,204.718033 527.034180,202.837555 525.791809,200.884064 
	C524.469849,198.805481 523.820068,196.595749 525.657349,194.483215 
	C527.460083,192.410538 529.725891,192.456436 531.980713,193.615768 
	C539.999207,197.738556 547.465942,196.881592 554.666809,191.541779 
	C557.070435,189.759323 558.924744,187.912018 558.965149,184.373123 
	C556.148010,182.084854 556.654846,178.759750 555.486572,175.680725 
	C554.961914,173.992508 554.778748,172.739090 555.187378,171.382141 
	C556.495667,167.037537 551.939270,157.509415 547.874634,155.831863 
	C546.716553,155.353897 545.565491,156.047684 544.063843,155.442413 
	C543.473328,155.046921 543.262390,154.859207 542.747070,154.387589 
	C541.506470,153.185028 540.485046,152.376297 540.031372,151.031357 
	C537.781738,144.362335 531.327637,140.511368 524.763733,142.037811 
	C522.887634,142.474060 521.177307,142.283020 519.066223,141.550507 
	C518.261414,140.931778 518.024902,140.439148 518.004272,139.413025 
	C512.392700,134.456665 506.506989,135.624878 500.700287,138.374115 
	C493.404999,141.828156 484.377960,140.359482 478.814667,134.458542 
	C478.063477,133.661758 477.517273,132.481567 477.305237,131.395172 
	C474.152618,115.243919 464.469452,104.165489 450.379272,96.454422 
	C446.123840,94.125549 444.242859,89.838531 442.778381,85.715416 
	C441.394989,81.820572 445.013916,80.333168 447.895111,78.957375 
	C455.747711,75.207664 460.073853,65.511642 457.598755,57.168396 
	C457.251953,55.999531 456.604980,55.080509 455.315460,54.190601 
	C454.455078,54.023571 453.899048,53.983833 453.041321,53.608940 
	C452.045837,52.393684 451.132538,51.182442 451.576111,50.196556 
	C453.528229,45.857899 450.855438,42.700073 448.674805,39.827873 
	C445.293823,35.374508 441.430573,31.230881 436.244446,27.667904 
z"/>
<path fill="#00457B" opacity="1.000000" stroke="none" 
	d="
M625.002625,190.384216 
	C623.776733,185.747345 620.897644,182.836029 617.205078,180.706573 
	C609.572815,176.305145 601.870422,172.135269 592.714905,171.755829 
	C588.322571,171.573792 585.465027,167.966629 581.825684,166.076645 
	C580.909241,165.600723 580.624817,164.426346 581.417053,163.496628 
	C582.335083,162.419250 583.590027,162.675232 584.627014,163.219620 
	C587.684265,164.824524 590.941284,165.105789 594.296570,164.970718 
	C596.137878,164.896576 597.953796,164.772217 599.723022,163.248016 
	C599.909363,162.054855 600.147034,161.267899 601.444458,160.623199 
	C602.274780,160.248917 602.744324,159.969025 603.221069,159.995285 
	C611.759766,160.465668 614.191772,158.413574 614.497864,149.694336 
	C614.591003,147.040192 615.620667,143.627182 611.559753,142.241882 
	C610.418579,141.852585 610.313538,140.012436 609.339417,138.611176 
	C608.984924,138.057449 608.841187,137.837326 608.492859,137.280365 
	C606.201233,134.339127 606.884399,130.830032 604.655518,127.913361 
	C601.607849,123.925179 597.783447,120.925262 594.496277,117.320000 
	C592.135498,114.730797 589.964478,114.411583 586.800598,116.091637 
	C585.538025,115.449837 585.254883,114.720451 585.785767,113.382446 
	C584.882385,110.467064 582.735657,109.195770 580.196167,108.737602 
	C573.150879,107.466530 566.035339,105.917198 559.007446,108.600723 
	C554.153503,110.454163 550.501221,108.995720 547.716858,105.022644 
	C544.741943,100.777657 541.643677,96.696861 537.452454,93.550995 
	C536.806702,93.066330 536.260742,92.351791 535.876221,91.632584 
	C534.102661,88.315033 530.498596,84.242409 533.099976,81.278374 
	C535.619934,78.407204 539.332092,82.386917 542.216614,83.972984 
	C550.368164,88.455070 563.205017,87.907387 569.802002,82.280472 
	C569.831970,80.938408 569.462952,79.884628 569.923462,78.408463 
	C573.808044,76.128563 574.557678,71.057426 572.748169,64.977478 
	C568.463562,50.581886 557.953186,42.388229 545.550903,35.242481 
	C539.444275,31.724077 533.346985,31.077583 526.866333,30.622881 
	C525.735229,30.543520 524.596802,30.780952 523.445374,30.996840 
	C518.364502,31.949512 515.894897,34.801716 516.104248,40.377449 
	C514.909912,42.670021 514.574341,45.010166 512.323975,46.698456 
	C511.941742,47.991890 511.780975,48.983349 511.785370,49.974075 
	C511.823792,58.603848 509.410278,60.016632 501.679047,55.819324 
	C499.790314,54.793949 497.962830,53.655838 495.649719,52.301739 
	C500.315094,49.004875 501.677551,43.768494 504.077576,39.244205 
	C510.346161,27.427408 504.948151,17.424194 498.260468,7.876310 
	C496.837494,5.844742 494.956024,4.139090 494.110168,1.332673 
	C501.020966,1.000000 508.041901,1.000000 515.531433,1.000000 
	C523.541016,3.562819 530.117554,8.480130 538.200623,9.794288 
	C544.027466,10.741631 549.119568,9.758707 553.328674,5.502082 
	C554.888794,3.924340 556.958069,3.066839 558.749634,1.250891 
	C563.024536,1.000000 567.049072,1.000000 571.536804,1.000000 
	C573.568054,2.320451 574.393494,3.619271 573.480652,5.934600 
	C568.290527,19.098518 573.458496,29.095303 583.967163,38.565994 
	C588.029602,42.227219 592.743286,45.169273 597.373108,48.087166 
	C604.747498,52.734875 613.009399,53.660686 621.399353,52.033321 
	C629.862427,50.391785 634.347473,40.671692 631.337830,31.280430 
	C630.011780,27.142662 627.557495,23.502924 625.937622,19.497513 
	C625.209839,17.697693 623.316528,15.627012 626.639221,13.985882 
	C636.109680,20.572170 638.507019,30.285738 637.623230,40.450394 
	C636.850464,49.336876 631.161682,55.575714 622.384338,58.410816 
	C619.382019,59.380585 616.426025,60.568344 613.202637,60.704563 
	C611.681335,60.768852 609.970276,60.899891 609.741943,62.831707 
	C609.483032,65.022270 611.224609,65.697311 612.917786,65.932961 
	C620.221802,66.949509 626.099854,71.393463 632.703735,74.082458 
	C635.531189,75.233765 637.828186,77.209595 638.885315,80.671036 
	C637.665527,84.635185 635.560913,83.113342 633.706299,81.661797 
	C628.494568,77.582680 622.470581,75.218666 616.280701,73.200615 
	C612.756775,72.051735 609.173889,71.623611 605.457825,72.428802 
	C598.958191,73.837120 595.415222,78.350914 595.879883,84.946205 
	C596.044556,87.284218 596.361023,89.700737 597.497253,91.710373 
	C603.753174,102.775002 611.481812,112.229637 624.109375,116.653030 
	C629.687195,118.606934 635.139893,120.250397 641.124817,119.431923 
	C649.502747,118.286209 653.493042,111.493004 649.953003,103.771927 
	C647.386047,98.173065 644.240784,92.885277 640.233398,88.121841 
	C638.675415,86.269844 636.449036,84.089142 639.727417,81.272179 
	C649.508301,83.610184 651.638245,92.320129 654.756226,99.766418 
	C657.840576,107.132713 657.984314,114.575066 653.495239,122.176270 
	C650.307495,127.573982 652.030457,133.666153 656.735474,138.118301 
	C660.486389,141.667648 664.467834,144.883438 666.277344,150.004089 
	C666.685669,151.159515 667.790344,152.397369 668.895325,152.923782 
	C675.209229,155.931747 678.289368,162.155701 682.846252,166.862381 
	C690.538574,174.807465 689.636841,184.631973 687.583740,194.474823 
	C687.077148,196.903397 684.068970,200.484695 686.811768,201.486237 
	C689.992371,202.647675 690.427612,197.978699 691.424133,195.622238 
	C695.226807,186.629761 701.263062,183.267410 708.736816,186.754700 
	C709.370056,189.400864 707.294434,189.580826 705.907898,190.174545 
	C700.388123,192.538162 696.552734,195.939911 697.394897,202.639206 
	C697.597656,204.251740 696.705261,205.479416 695.256470,206.743530 
	C675.312439,207.000000 655.624878,207.000000 635.468628,207.000000 
	C631.175903,204.178848 628.767639,200.208771 626.195740,196.341324 
	C625.015747,194.566788 624.592773,192.801590 625.002625,190.384216 
z"/>
<path fill="#014A81" opacity="1.000000" stroke="none" 
	d="
M626.846680,13.702250 
	C627.729736,18.553356 630.293823,22.324232 632.260620,26.351444 
	C634.490967,30.918066 636.025879,35.595463 634.684021,40.781265 
	C631.821411,51.844311 625.190796,56.605263 613.779297,55.540733 
	C595.043945,53.792992 581.930115,43.127995 572.026428,28.140451 
	C567.822388,21.778446 567.606384,14.319431 570.218323,6.979537 
	C570.831177,5.257378 571.317444,3.490149 571.930969,1.371823 
	C585.687561,1.000000 599.375122,1.000000 613.531372,1.000000 
	C617.339722,6.046196 622.996216,8.722290 626.846680,13.702250 
z"/>
<path fill="#015491" opacity="1.000000" stroke="none" 
	d="
M40.531345,1.000000 
	C43.443668,4.597179 47.462662,6.162390 50.842171,8.525879 
	C59.350620,14.476335 66.164604,21.768293 70.155907,31.506006 
	C74.858902,42.980061 69.255699,52.154114 56.875805,52.889435 
	C49.207916,53.344872 42.057682,51.574684 35.461571,47.462891 
	C29.350994,43.653755 23.641994,39.379852 18.700607,34.137646 
	C13.889296,29.033426 11.238544,22.864851 9.529898,16.102734 
	C8.056084,10.269987 12.033920,6.377769 13.918118,1.348357 
	C22.687563,1.000000 31.375128,1.000000 40.531345,1.000000 
z"/>
<path fill="#015491" opacity="1.000000" stroke="none" 
	d="
M218.468658,207.000000 
	C215.491913,202.551727 210.491531,201.173691 206.873047,198.056808 
	C200.538605,192.600494 195.189270,186.294281 192.545822,178.547455 
	C188.200104,165.812057 191.347092,157.650711 203.446167,156.150070 
	C208.417206,155.533508 213.508087,156.295013 218.234680,157.911057 
	C232.015244,162.622726 242.808716,171.109894 249.294052,184.365738 
	C252.903488,191.743317 253.994461,199.285156 248.158264,206.691925 
	C238.312439,207.000000 228.624878,207.000000 218.468658,207.000000 
z"/>
<path fill="#00457B" opacity="1.000000" stroke="none" 
	d="
M794.000000,134.531586 
	C770.938538,147.482712 742.929871,127.397408 735.226196,107.692734 
	C731.443115,98.016342 734.974915,86.786713 749.330750,86.079109 
	C752.362427,85.929665 755.312439,86.320648 758.143066,87.415413 
	C771.454712,92.563736 784.030518,98.672066 790.940979,112.296524 
	C791.430237,113.261169 792.568237,113.896767 793.702271,114.842690 
	C794.000000,121.354393 794.000000,127.708794 794.000000,134.531586 
z"/>
<path fill="#015491" opacity="1.000000" stroke="none" 
	d="
M335.468658,207.000000 
	C332.481720,201.371475 326.375641,198.707458 323.634857,193.240402 
	C323.046875,192.067551 322.010925,191.128510 321.298279,190.007416 
	C317.115051,183.426270 314.552307,176.584641 318.256927,168.873825 
	C322.038177,161.003616 329.408569,162.364807 336.551941,161.990997 
	C339.401581,162.302444 341.797089,162.617355 344.593872,162.968399 
	C347.248352,164.923767 350.151337,165.758240 352.754761,167.747375 
	C353.001831,167.989624 353.498291,167.997284 353.746521,168.001099 
	C358.468414,169.940140 361.940125,173.233994 365.731384,176.727310 
	C366.600525,177.802002 367.199371,178.610428 367.903839,179.707275 
	C372.171997,183.979446 375.104187,188.739243 376.979004,194.589645 
	C377.006592,195.443314 377.011230,195.887741 377.018860,196.665497 
	C378.648254,199.961197 378.021667,203.046814 377.260498,206.562775 
	C363.312439,207.000000 349.624878,207.000000 335.468658,207.000000 
z"/>
<path fill="#00457B" opacity="1.000000" stroke="none" 
	d="
M775.469360,207.000000 
	C772.077881,203.035675 767.535828,201.054794 763.853027,198.016342 
	C756.577087,192.013321 752.389648,184.353882 750.385620,175.366028 
	C747.170166,160.944748 758.834900,150.026306 771.616150,152.249649 
	C779.050842,153.542969 786.832825,154.165543 793.678101,158.862518 
	C794.000000,174.066589 793.953308,189.133499 794.052429,204.199432 
	C794.066650,206.353577 793.887085,207.226517 791.331787,207.084442 
	C786.215027,206.799988 781.071350,207.000000 775.469360,207.000000 
z"/>
<path fill="#014D85" opacity="1.000000" stroke="none" 
	d="
M488.531342,1.000000 
	C492.197998,7.008499 497.725525,11.211086 500.952789,17.389595 
	C504.319092,23.834232 505.728638,30.297707 502.367737,36.275784 
	C498.828400,42.571159 491.502502,43.179798 485.025269,42.454113 
	C475.657562,41.404594 466.754517,37.915714 459.795319,31.564281 
	C451.112152,23.639427 442.404144,15.252038 443.004974,1.433606 
	C458.020905,1.000000 473.041779,1.000000 488.531342,1.000000 
z"/>
<path fill="#005089" opacity="1.000000" stroke="none" 
	d="
M503.725159,200.813217 
	C504.000916,202.714767 504.002075,204.428955 504.001617,206.571564 
	C487.645782,207.000000 471.291534,207.000000 454.468658,207.000000 
	C450.643982,202.254288 447.514923,197.358688 445.086761,192.074341 
	C442.559784,186.574875 441.526276,180.888611 445.221588,175.501068 
	C449.220886,169.670303 455.387177,168.584091 461.657074,169.784821 
	C477.510010,172.820786 490.350494,180.693466 498.959625,194.729752 
	C500.256714,196.844528 501.330811,199.135147 503.725159,200.813217 
z"/>
<path fill="#014D85" opacity="1.000000" stroke="none" 
	d="
M624.678162,189.870682 
	C628.695740,195.178452 632.757080,200.138245 634.932068,206.640900 
	C613.979126,207.000000 592.958191,207.000000 571.468628,207.000000 
	C570.029541,202.314468 567.750061,197.999054 567.946045,192.954086 
	C568.339478,182.823944 573.893677,176.331848 583.878845,175.191360 
	C596.600037,173.738342 607.928101,177.090027 617.763672,185.314880 
	C619.813660,187.029160 621.830505,188.755188 624.678162,189.870682 
z"/>
<path fill="#005089" opacity="1.000000" stroke="none" 
	d="
M367.531372,0.999994 
	C369.852875,3.953537 371.688354,6.918162 373.563995,9.857163 
	C375.096497,12.258485 376.492218,14.710023 376.786377,17.616602 
	C378.364105,33.206139 369.993958,39.626686 352.525940,34.816952 
	C335.726288,30.191242 323.044403,19.063967 317.096863,1.351215 
	C333.687561,1.000000 350.375122,1.000000 367.531372,0.999994 
z"/>
<path fill="#015491" opacity="1.000000" stroke="none" 
	d="
M14.468657,207.000000 
	C12.942095,204.938919 11.823723,202.906342 10.836428,200.811981 
	C5.706600,189.930008 12.012053,179.491516 23.991655,179.039154 
	C36.757893,178.557083 46.994747,184.599274 56.455296,192.143951 
	C61.368595,196.062256 65.896103,200.546356 68.867493,206.683823 
	C50.979103,207.000000 32.958210,207.000000 14.468657,207.000000 
z"/>
<path fill="#005089" opacity="1.000000" stroke="none" 
	d="
M246.531342,0.999999 
	C248.449249,4.335646 250.318726,7.556162 251.270004,11.028244 
	C254.284653,22.031487 248.918228,28.699423 237.399612,28.992426 
	C222.610260,29.368628 211.370987,22.361326 201.863663,11.957357 
	C199.132339,8.968439 195.804352,6.153287 195.067719,1.357865 
	C212.020889,1.000000 229.041794,1.000000 246.531342,0.999999 
z"/>
<path fill="#015491" opacity="1.000000" stroke="none" 
	d="
M1.000000,105.468658 
	C15.162689,110.780006 25.143240,120.637932 29.985733,135.268661 
	C33.662586,146.377625 27.798183,154.438217 16.065128,154.987335 
	C11.166840,155.216583 6.468543,154.325867 1.391361,153.067200 
	C1.000000,137.312439 1.000000,121.624878 1.000000,105.468658 
z"/>
<path fill="#015491" opacity="1.000000" stroke="none" 
	d="
M136.468658,207.000000 
	C135.401733,203.401550 134.761093,199.811752 135.218292,196.131134 
	C135.956680,190.186981 138.472290,187.196152 144.187332,185.559006 
	C158.782532,181.378082 181.767349,192.305115 187.919373,206.655502 
	C170.979111,207.000000 153.958206,207.000000 136.468658,207.000000 
z"/>
<path fill="#00487E" opacity="1.000000" stroke="none" 
	d="
M695.468628,207.000000 
	C694.962280,206.334427 694.938538,205.667740 694.884766,205.003464 
	C693.885620,192.660324 696.081177,189.711288 708.620605,187.035904 
	C714.283325,186.885254 719.232727,188.525894 724.619263,189.931000 
	C730.039001,194.441711 735.931274,197.813156 740.708374,202.594711 
	C741.867554,203.754837 743.372314,204.584854 741.319519,206.677734 
	C725.979126,207.000000 710.958191,207.000000 695.468628,207.000000 
z"/>
<path fill="#00457B" opacity="1.000000" stroke="none" 
	d="
M684.531372,1.000000 
	C684.962769,2.491815 685.007629,3.991001 684.874451,5.474201 
	C684.199646,12.988789 680.236511,17.688511 672.747314,18.197557 
	C657.494873,19.234282 645.019043,13.353560 635.135986,1.310242 
	C651.354248,1.000000 667.708435,1.000000 684.531372,1.000000 
z"/>
<path fill="#015491" opacity="1.000000" stroke="none" 
	d="
M262.468658,207.000000 
	C261.424042,200.086655 266.473694,193.092010 273.775970,192.475922 
	C287.551453,191.313721 299.444366,195.825043 308.876038,206.686890 
	C293.645782,207.000000 278.291534,207.000000 262.468658,207.000000 
z"/>
<path fill="#015491" opacity="1.000000" stroke="none" 
	d="
M10.740368,52.760464 
	C10.984814,53.016685 10.990453,53.508759 10.994442,53.754784 
	C15.226660,58.960762 16.143803,65.105179 16.544550,71.198494 
	C17.012377,78.311768 8.743342,84.452042 1.355665,82.341721 
	C1.000000,69.645775 1.000000,57.291546 1.000000,44.468658 
	C1.365787,43.558331 1.831035,43.387470 2.697256,43.744198 
	C4.137495,44.914715 5.276210,45.828415 6.698894,46.877235 
	C8.644387,48.529213 9.060851,50.842518 10.740368,52.760464 
z"/>
<path fill="#015491" opacity="1.000000" stroke="none" 
	d="
M109.531342,1.000000 
	C109.104820,9.714386 105.639648,12.614967 96.892403,13.050209 
	C85.778091,13.603230 76.426987,10.410160 69.152786,1.296609 
	C82.354225,1.000000 95.708458,1.000000 109.531342,1.000000 
z"/>
<path fill="#014A81" opacity="1.000000" stroke="none" 
	d="
M558.531372,1.000000 
	C556.682739,7.421276 552.372620,11.841348 545.482422,12.601714 
	C534.013062,13.867415 524.632996,8.992574 516.156616,1.298072 
	C530.020874,1.000000 544.041809,1.000000 558.531372,1.000000 
z"/>
<path fill="#015491" opacity="1.000000" stroke="none" 
	d="
M390.468658,207.000000 
	C391.628784,203.050400 394.589539,200.295853 398.602386,199.317657 
	C411.329071,196.215332 423.182678,198.065781 433.825684,206.710358 
	C419.645782,207.000000 405.291534,207.000000 390.468658,207.000000 
z"/>
<path fill="#014D85" opacity="1.000000" stroke="none" 
	d="
M429.531342,1.000000 
	C429.068604,3.052164 427.586090,4.839733 425.413910,5.159171 
	C416.434967,6.479589 407.419250,7.530123 399.219543,1.259556 
	C409.020905,1.000000 419.041779,1.000000 429.531342,1.000000 
z"/>
<path fill="#005089" opacity="1.000000" stroke="none" 
	d="
M1.000000,82.399994 
	C13.235106,81.358803 17.725121,73.391365 13.184517,60.361004 
	C12.528477,58.478336 11.823643,56.612675 11.069909,54.369972 
	C17.456554,58.997929 18.358891,66.140579 17.470228,73.337349 
	C16.664892,79.859299 11.482163,82.930222 5.537846,84.645699 
	C4.260540,85.014313 2.993444,85.418312 1.360822,85.903000 
	C1.000000,84.933327 1.000000,83.866661 1.000000,82.399994 
z"/>
<path fill="#00457B" opacity="1.000000" stroke="none" 
	d="
M741.416626,207.000000 
	C739.972412,203.562790 737.510681,201.001129 734.448914,199.894928 
	C729.715027,198.184601 727.421509,194.615906 725.158203,190.304337 
	C733.994995,192.817398 740.663818,198.579544 745.864258,206.686493 
	C744.611084,207.000000 743.222229,207.000000 741.416626,207.000000 
z"/>
<path fill="#005089" opacity="1.000000" stroke="none" 
	d="
M377.250000,207.000000 
	C377.004822,203.968918 377.009613,200.937820 377.018127,197.452774 
	C379.686676,199.785675 378.992798,203.009628 378.112457,206.621613 
	C378.000000,207.000000 377.500000,207.000000 377.250000,207.000000 
z"/>
<path fill="#014A81" opacity="1.000000" stroke="none" 
	d="
M533.399963,207.000000 
	C534.090515,205.779709 535.262695,205.322281 536.810913,206.806213 
	C535.933289,207.000000 534.866638,207.000000 533.399963,207.000000 
z"/>
<path fill="#005089" opacity="1.000000" stroke="none" 
	d="
M2.827846,43.773575 
	C2.554610,44.000980 2.110441,44.000946 1.333136,44.000458 
	C1.000000,43.555553 1.000000,43.111111 0.999999,42.333332 
	C1.552304,42.515377 2.104609,43.030754 2.827846,43.773575 
z"/>
<path fill="#015491" opacity="1.000000" stroke="none" 
	d="
M206.322113,64.439720 
	C205.257355,48.720203 212.923615,41.114994 228.295563,41.743793 
	C247.857559,42.543995 261.395264,53.542416 270.945312,68.985107 
	C276.846741,78.527847 277.694641,91.621788 267.218567,99.210533 
	C260.420532,104.134941 252.598938,103.800232 245.165848,102.272278 
	C233.986267,99.974182 224.791031,93.897263 217.150101,85.227509 
	C211.855194,79.219673 207.486649,72.977509 206.322113,64.439720 
z"/>
<path fill="#015491" opacity="1.000000" stroke="none" 
	d="
M136.076263,22.662064 
	C135.838913,7.224426 146.050797,1.224641 161.938431,6.951056 
	C173.562241,11.140653 182.720108,18.752106 190.369797,28.123419 
	C195.438889,34.333355 196.788834,41.946892 195.748184,49.845150 
	C195.141083,54.452984 189.894562,58.223999 183.880829,58.856682 
	C170.430481,60.271732 159.477371,54.650169 149.851181,46.167324 
	C142.912109,40.052456 137.292023,32.815598 136.076263,22.662064 
z"/>
<path fill="#015491" opacity="1.000000" stroke="none" 
	d="
M325.073303,90.928391 
	C335.591034,96.801277 342.276306,105.398544 345.724426,116.427452 
	C349.402313,128.191330 343.738159,135.912537 331.495667,135.954498 
	C317.070740,136.003937 305.822021,129.197495 296.129303,119.148094 
	C289.574097,112.351631 284.795837,105.032761 285.901367,94.841034 
	C286.648315,87.955254 290.337067,83.540825 297.463104,83.092445 
	C307.432617,82.465134 316.563171,84.976074 325.073303,90.928391 
z"/>
<path fill="#015491" opacity="1.000000" stroke="none" 
	d="
M392.490173,133.240128 
	C410.195892,136.386444 422.346069,146.357941 430.646149,161.448639 
	C431.852844,163.642593 432.512268,166.062332 432.799347,168.573059 
	C434.097534,179.926117 427.790283,186.264160 416.390045,185.553085 
	C395.526733,184.251770 381.496246,172.561829 373.682953,154.556610 
	C368.133270,141.767700 372.846283,134.546036 386.576935,133.096298 
	C388.380035,132.905899 390.228302,133.143387 392.490173,133.240128 
z"/>
<path fill="#015491" opacity="1.000000" stroke="none" 
	d="
M286.003601,137.665405 
	C286.119904,141.301285 288.043182,143.917694 289.330750,146.781738 
	C293.324799,155.665909 291.092926,164.758209 283.645142,168.497513 
	C277.316101,171.675140 270.839386,169.753387 264.753815,167.563538 
	C251.666534,162.854202 241.402481,154.750427 234.670181,142.199371 
	C231.507935,136.303955 230.805862,130.294922 231.000488,123.459808 
	C230.999390,123.000000 231.005493,122.506447 231.007874,122.259666 
	C233.746964,119.486069 235.820526,115.934334 240.624725,116.011124 
	C241.745377,115.987778 242.496246,115.984619 243.622528,115.980515 
	C251.481995,112.898010 258.261200,115.641327 264.808044,118.865334 
	C265.894165,119.400200 267.257263,120.344727 268.638611,121.687126 
	C269.000000,122.000305 269.494965,122.005127 269.742432,122.006844 
	C275.844757,125.683685 280.579865,130.642105 285.706360,135.746124 
	C285.992493,136.456345 285.996246,136.896011 286.003601,137.665405 
z"/>
<path fill="#015491" opacity="1.000000" stroke="none" 
	d="
M149.999542,88.332672 
	C150.458405,87.516624 150.964127,87.069969 151.366821,86.544373 
	C158.372147,77.401344 165.872620,76.103661 177.038940,79.606514 
	C191.550385,84.158722 201.046555,93.808807 208.557663,106.272621 
	C211.092041,110.478111 211.803131,115.028648 211.521545,119.702415 
	C211.126831,126.254204 206.516113,130.308502 199.677200,130.944992 
	C183.898010,132.413513 172.221130,124.659103 161.912735,114.072571 
	C155.597824,107.587257 152.009048,99.560631 150.041245,90.380234 
	C149.994141,89.552315 149.996307,89.108818 149.999542,88.332672 
z"/>
<path fill="#005089" opacity="1.000000" stroke="none" 
	d="
M269.736877,13.252214 
	C272.072632,12.691614 274.143921,12.381436 276.607605,12.035940 
	C279.439056,12.168094 281.915070,11.710975 284.663086,12.711255 
	C285.752991,12.992341 286.501068,12.996045 287.623169,13.002141 
	C290.111755,16.340500 293.816162,17.317156 297.022522,18.978193 
	C305.902405,23.578392 313.384003,29.728159 319.017181,38.064743 
	C322.150513,42.701797 323.246948,47.795525 322.559174,53.261978 
	C321.538269,61.376068 317.329407,65.366432 309.117615,65.888329 
	C295.215576,66.771858 284.355774,60.100109 274.965271,50.978794 
	C267.192322,43.428699 261.345551,34.535030 261.994385,22.435440 
	C261.992706,21.549482 261.995209,21.107079 261.999451,20.332792 
	C264.156403,17.449425 266.257965,14.836279 269.736877,13.252214 
z"/>
<path fill="#005089" opacity="1.000000" stroke="none" 
	d="
M339.730652,54.252525 
	C350.554321,52.871365 360.143219,55.987247 369.687073,60.837902 
	C377.974884,65.968796 385.010468,71.885094 389.727753,80.699173 
	C389.998779,81.000916 390.005310,81.495399 390.008759,81.742516 
	C390.546265,83.904808 390.972900,85.857834 391.632172,87.728882 
	C395.197235,97.846207 389.669708,106.915192 378.925110,107.773483 
	C368.087219,108.639244 358.602203,104.477768 350.570221,97.676414 
	C343.539825,91.723183 336.299286,85.710648 333.752075,75.992050 
	C332.503265,71.227203 331.546509,66.635643 332.906555,61.394169 
	C333.252533,60.498985 333.510040,60.003483 333.883759,59.253983 
	C335.693970,57.348068 336.995300,55.219040 339.730652,54.252525 
z"/>
<path fill="#015491" opacity="1.000000" stroke="none" 
	d="
M108.588959,37.008980 
	C114.949684,41.158699 120.955696,45.244041 126.863556,49.466717 
	C134.770706,55.118408 139.963974,62.663116 141.876968,72.241814 
	C143.784866,81.795006 140.151917,86.888710 130.609390,88.378983 
	C118.295708,90.302032 108.097809,85.327194 98.773148,78.152161 
	C92.135971,73.045067 86.938095,66.531448 82.260162,59.208191 
	C81.756485,57.556633 81.509270,56.117634 81.133194,54.338394 
	C79.104538,50.487453 79.735626,47.072021 81.694382,43.347054 
	C81.999367,42.557068 82.002151,42.115219 82.006302,41.341984 
	C84.505035,38.306042 87.621330,36.737186 91.595413,35.999176 
	C93.065872,35.992813 94.134239,35.991737 95.603226,35.990318 
	C98.768288,36.127197 101.564560,35.657108 104.648544,36.706661 
	C106.064293,36.994247 107.127419,37.000000 108.588959,37.008980 
z"/>
<path fill="#005089" opacity="1.000000" stroke="none" 
	d="
M268.863739,121.687828 
	C261.088776,119.489166 253.610184,115.241829 244.442154,115.985771 
	C250.081757,110.508339 263.666321,113.472366 268.863739,121.687828 
z"/>
<path fill="#005089" opacity="1.000000" stroke="none" 
	d="
M285.856232,135.703445 
	C279.908020,132.538849 275.083862,127.591255 270.143219,122.304596 
	C277.496124,123.809998 281.451813,129.785980 285.856232,135.703445 
z"/>
<path fill="#005089" opacity="1.000000" stroke="none" 
	d="
M377.054596,194.693817 
	C374.058136,190.227753 371.114288,185.456619 368.089966,180.340576 
	C374.562073,182.568375 376.045471,188.345291 377.054596,194.693817 
z"/>
<path fill="#005089" opacity="1.000000" stroke="none" 
	d="
M365.866119,176.682526 
	C361.210052,175.438904 357.898010,171.851944 354.191040,168.271362 
	C359.439606,168.643509 363.198700,171.646774 365.866119,176.682526 
z"/>
<path fill="#005089" opacity="1.000000" stroke="none" 
	d="
M91.674316,35.911102 
	C88.923546,37.656281 86.190773,39.971722 82.356918,40.929352 
	C83.359215,36.104656 87.099503,35.505531 91.674316,35.911102 
z"/>
<path fill="#005089" opacity="1.000000" stroke="none" 
	d="
M240.678772,115.892456 
	C237.874649,117.906586 234.754761,119.822220 231.322571,121.875374 
	C232.933182,118.143227 235.303299,114.946106 240.678772,115.892456 
z"/>
<path fill="#005089" opacity="1.000000" stroke="none" 
	d="
M81.699669,43.192764 
	C81.666718,46.373734 81.336853,49.748550 81.005653,53.560764 
	C78.329727,50.355568 78.030426,46.802166 81.699669,43.192764 
z"/>
<path fill="#005089" opacity="1.000000" stroke="none" 
	d="
M104.737900,36.752197 
	C102.233276,36.952370 99.441650,37.182716 96.378563,36.121933 
	C98.898788,35.016335 101.771027,34.408131 104.737900,36.752197 
z"/>
<path fill="#005089" opacity="1.000000" stroke="none" 
	d="
M352.814026,167.715454 
	C350.147858,167.045013 347.276093,166.131042 345.184326,163.277924 
	C348.023590,163.649780 350.699677,164.900986 352.814026,167.715454 
z"/>
<path fill="#005089" opacity="1.000000" stroke="none" 
	d="
M10.893706,52.676189 
	C8.909625,51.814098 7.640874,50.029472 7.061691,47.351307 
	C9.298863,48.038574 10.231695,50.057281 10.893706,52.676189 
z"/>
<path fill="#015491" opacity="1.000000" stroke="none" 
	d="
M90.920380,95.268173 
	C92.351433,98.564674 92.772507,101.686180 93.077034,104.847328 
	C94.396606,118.545517 87.275581,124.679527 74.377525,125.873787 
	C61.479839,127.067993 50.878159,121.400635 41.271523,113.278290 
	C34.236954,107.330612 29.121367,100.395523 26.510420,91.379677 
	C20.962147,72.220955 36.772636,62.895710 51.639397,65.533234 
	C64.961807,67.896759 76.275566,74.247635 84.824821,85.131378 
	C87.229057,88.192139 88.818779,91.634789 90.920380,95.268173 
z"/>
<path fill="#015491" opacity="1.000000" stroke="none" 
	d="
M69.646713,184.429123 
	C62.774261,179.029175 56.781464,173.390030 53.134441,165.564468 
	C51.256458,161.534821 50.144840,157.457367 50.059967,153.073212 
	C49.893631,144.481277 55.771698,138.682907 64.355850,138.696945 
	C76.309166,138.716492 86.296654,143.562546 95.174278,151.101547 
	C99.616623,154.874054 103.684593,158.999084 106.834229,164.001541 
	C110.880440,170.427994 111.830353,177.380692 110.504051,184.642548 
	C109.651070,189.312881 103.910187,193.128998 97.396683,193.797150 
	C89.381149,194.619415 82.392212,191.493896 75.568237,187.871368 
	C73.659180,186.857956 71.825493,185.702545 69.646713,184.429123 
z"/>
<path fill="#015491" opacity="1.000000" stroke="none" 
	d="
M106.584000,130.267242 
	C104.509796,126.469246 103.894646,122.724922 104.115166,118.840622 
	C104.551750,111.150803 108.369118,107.519516 115.976746,106.970154 
	C138.210373,105.364563 152.407227,117.592827 163.348999,134.852295 
	C166.870422,140.406937 166.916107,146.813858 163.544357,152.957199 
	C160.926788,157.726440 156.924973,159.696075 151.701492,159.783340 
	C141.322540,159.956726 132.225128,156.341187 123.914635,150.413712 
	C116.602257,145.198151 111.010986,138.479721 106.584000,130.267242 
z"/>
<path fill="#00487E" opacity="1.000000" stroke="none" 
	d="
M697.595215,159.445831 
	C686.762756,152.026169 679.829224,142.571228 678.419739,129.519791 
	C677.555054,121.513725 682.460022,115.837959 690.509949,115.006775 
	C710.479309,112.944885 735.490845,130.844940 738.553528,152.546616 
	C739.938721,162.361832 733.713257,169.255157 723.410645,168.679749 
	C713.995239,168.153900 705.627319,164.839249 697.595215,159.445831 
z"/>
<path fill="#014A81" opacity="1.000000" stroke="none" 
	d="
M639.736206,81.013489 
	C640.363037,83.956177 642.178040,86.089729 643.790710,88.446381 
	C648.167725,94.842583 653.546143,100.860794 653.917053,109.178787 
	C654.212891,115.813072 649.782104,121.024933 643.148499,121.936844 
	C630.308411,123.701958 619.181580,119.816574 609.728760,111.156685 
	C605.441040,107.228653 601.309509,103.107544 597.942749,98.291779 
	C596.102966,95.660179 594.733337,92.875748 593.959106,89.757538 
	C590.528076,75.939713 598.935303,66.885170 612.939392,69.619606 
	C620.340576,71.064758 627.295532,73.867546 633.524170,78.237785 
	C635.027527,79.292587 636.456909,80.440063 638.652344,80.920227 
	C638.997559,81.002380 639.489990,81.009834 639.736206,81.013489 
z"/>
<path fill="#00457B" opacity="1.000000" stroke="none" 
	d="
M747.768311,59.021049 
	C737.232605,62.491978 727.647522,60.669636 718.832214,55.119110 
	C710.493530,49.868645 703.028870,43.619568 697.761169,34.967293 
	C694.104919,28.961796 693.603088,22.776384 695.225769,16.266130 
	C696.366699,11.688752 702.636414,8.126883 708.363708,8.205949 
	C721.710754,8.390205 731.964355,15.233368 741.545715,23.502478 
	C748.491272,29.496780 752.567810,36.938492 753.637634,46.229797 
	C754.281189,51.819275 753.296692,56.097073 747.768311,59.021049 
z"/>
<path fill="#00487E" opacity="1.000000" stroke="none" 
	d="
M650.233521,62.224194 
	C650.003296,61.553665 650.000671,61.110622 649.996216,60.335297 
	C647.484009,55.191158 647.473694,49.997593 647.940491,44.819618 
	C648.239441,41.503395 653.829895,37.664928 658.390076,37.199661 
	C666.295044,36.393131 674.312012,36.696213 680.977051,41.099419 
	C689.996704,47.058231 699.674866,52.666565 704.028442,63.596165 
	C705.346802,66.905853 707.926941,69.524574 708.183533,73.488274 
	C708.694214,81.377121 704.871765,86.985565 696.445374,88.967377 
	C693.630310,89.000023 691.260681,88.996666 688.447021,88.992798 
	C687.124939,87.822052 685.828064,88.063599 684.312317,87.993675 
	C683.198120,87.737335 682.396240,87.477348 681.298157,87.106705 
	C677.621704,84.362793 672.941895,85.057693 669.263123,82.257645 
	C668.467041,81.466270 667.934143,80.932281 667.201050,80.198303 
	C666.476746,79.456032 665.930542,78.935936 665.196411,78.203728 
	C664.998718,78.001511 664.500732,77.998947 664.251709,77.997688 
	C661.107971,74.875923 657.896179,72.109894 654.266968,69.258385 
	C654.004761,68.553246 654.001953,68.110298 653.997314,67.335129 
	C652.470642,65.755043 651.571777,64.021133 650.233521,62.224194 
z"/>
<path fill="#00457B" opacity="1.000000" stroke="none" 
	d="
M696.316772,89.102478 
	C698.753906,86.866302 701.622620,84.859642 704.234253,82.560928 
	C707.944824,79.294998 708.366455,74.268463 705.771790,71.258186 
	C701.416504,66.205322 700.015564,59.733387 696.009827,54.633659 
	C693.984741,52.055511 692.003784,49.820858 688.778564,48.901596 
	C687.163452,48.441261 685.632019,47.705334 684.580139,46.340763 
	C677.397644,37.023514 667.261963,37.518646 657.284058,38.594563 
	C651.667725,39.200165 649.049744,43.002258 649.081116,48.733368 
	C649.100098,52.209408 649.621460,55.682693 649.955688,59.580116 
	C645.880127,54.804569 645.156616,48.925507 647.930664,43.153072 
	C650.582214,37.635632 655.986450,36.215862 661.780884,36.004440 
	C675.481323,35.504562 686.168762,41.616627 696.248718,50.294807 
	C704.177673,57.121063 708.960510,64.973625 709.651794,75.360451 
	C710.136719,82.645897 703.915588,89.282730 696.316772,89.102478 
z"/>
<path fill="#00457B" opacity="1.000000" stroke="none" 
	d="
M654.157349,69.293541 
	C658.175720,70.713501 661.637146,73.251068 663.867188,77.685684 
	C660.043701,76.033302 656.947327,73.075165 654.157349,69.293541 
z"/>
<path fill="#00457B" opacity="1.000000" stroke="none" 
	d="
M669.204163,82.275291 
	C672.863647,83.461525 677.302368,83.438789 680.778320,86.736832 
	C676.976440,85.933998 672.571716,85.860748 669.204163,82.275291 
z"/>
<path fill="#00457B" opacity="1.000000" stroke="none" 
	d="
M650.113037,62.318550 
	C651.789307,63.002247 653.022827,64.476776 653.871887,66.693741 
	C652.040955,66.151047 650.830688,64.655251 650.113037,62.318550 
z"/>
<path fill="#00457B" opacity="1.000000" stroke="none" 
	d="
M684.320801,88.123428 
	C685.315002,87.517792 686.556641,87.488472 687.808777,88.789391 
	C686.882568,88.744698 685.762024,88.497108 684.320801,88.123428 
z"/>
<path fill="#00457B" opacity="1.000000" stroke="none" 
	d="
M665.170227,78.228447 
	C665.551819,78.515823 666.104919,79.030136 666.829468,79.771393 
	C666.447876,79.484016 665.894836,78.969704 665.170227,78.228447 
z"/>
<path fill="#005089" opacity="1.000000" stroke="none" 
	d="
M454.969849,51.592350 
	C455.001587,52.443523 455.005035,52.886189 455.012360,53.660686 
	C454.827301,60.239292 455.933075,66.691956 451.417999,72.149300 
	C449.446991,74.531685 447.331299,76.492386 444.324860,77.362267 
	C436.294495,79.685791 428.224579,80.170746 420.383972,76.895203 
	C407.804565,71.639931 397.208038,63.820179 390.896942,51.397282 
	C385.626038,41.021988 385.859314,23.908995 398.005432,20.434128 
	C406.429535,18.024073 415.070953,18.063148 423.433746,21.658657 
	C427.393951,23.361328 430.926300,26.040405 435.633484,26.932217 
	C435.998779,27.000731 436.000000,27.000000 435.999756,27.000246 
	C438.683472,30.115992 442.059174,32.502552 445.084015,35.232998 
	C450.015472,39.684444 452.814667,45.154465 454.969849,51.592350 
z"/>
<path fill="#005089" opacity="1.000000" stroke="none" 
	d="
M460.312744,107.702690 
	C466.606995,115.038391 473.058014,121.925056 472.962646,132.150818 
	C472.873474,141.719147 466.222076,147.532486 456.722839,146.616287 
	C438.330048,144.842346 424.648743,135.812973 415.335449,120.000519 
	C412.250122,114.762115 411.962585,108.846596 412.401733,103.075096 
	C412.891571,96.638130 419.166504,92.038673 427.518005,92.156342 
	C438.786835,92.315102 448.328735,97.214317 456.801117,104.369926 
	C457.941711,105.333267 458.971283,106.428047 460.312744,107.702690 
z"/>
<path fill="#005089" opacity="1.000000" stroke="none" 
	d="
M558.721497,173.709045 
	C558.986023,177.039337 558.988525,180.061386 558.990112,183.535767 
	C544.670776,194.970016 537.138062,195.170654 519.440063,184.012939 
	C510.028656,178.079498 502.544373,170.354416 498.542999,159.442307 
	C494.975372,149.712967 499.225372,137.758636 513.096802,138.987503 
	C514.415222,139.104294 515.753662,138.995010 517.545044,138.986832 
	C518.450500,138.986389 518.893738,138.989807 519.669373,138.994980 
	C525.954651,139.764450 531.705139,141.000397 536.267090,145.371964 
	C538.725464,147.727753 541.941040,149.099655 544.713623,151.719177 
	C544.996765,152.003250 545.000000,152.000000 544.998413,152.001678 
	C551.703430,157.739700 555.534729,165.285080 558.721497,173.709045 
z"/>
<path fill="#014D85" opacity="1.000000" stroke="none" 
	d="
M389.929901,80.640152 
	C383.468658,74.508476 376.938538,68.016029 370.205017,61.258114 
	C370.970642,61.016445 372.224121,60.652874 372.865112,61.123505 
	C379.890991,66.282036 387.418762,71.043648 389.929901,80.640152 
z"/>
<path fill="#014D85" opacity="1.000000" stroke="none" 
	d="
M269.643250,13.069968 
	C268.109741,15.867440 265.693268,18.157536 262.312012,19.865671 
	C262.770874,15.953228 265.425629,13.906362 269.643250,13.069968 
z"/>
<path fill="#014D85" opacity="1.000000" stroke="none" 
	d="
M339.641357,54.048866 
	C338.742249,56.187237 336.922363,57.736229 334.309631,58.868164 
	C334.767548,56.295364 336.281921,54.395699 339.641357,54.048866 
z"/>
<path fill="#014D85" opacity="1.000000" stroke="none" 
	d="
M284.748718,12.755363 
	C282.561371,12.971083 280.103973,13.091348 277.371002,12.130472 
	C279.574432,11.069144 282.120178,10.550094 284.748718,12.755363 
z"/>
<path fill="#014D85" opacity="1.000000" stroke="none" 
	d="
M527.421631,94.765060 
	C528.958801,107.821297 524.389404,113.477150 511.910950,112.893234 
	C492.096252,111.966019 477.798279,101.644447 468.536194,84.580452 
	C464.953552,77.980003 463.661194,69.866379 469.278687,63.877457 
	C474.255310,58.571754 481.846985,57.894958 488.884277,59.550751 
	C502.892975,62.846840 513.974121,70.680649 522.061829,82.633827 
	C524.491882,86.225395 526.853394,89.870819 527.421631,94.765060 
z"/>
<path fill="#014D85" opacity="1.000000" stroke="none" 
	d="
M585.610046,112.959084 
	C586.496643,113.256058 586.994080,113.512535 587.746582,113.884415 
	C594.353943,114.827217 597.836365,120.102043 601.993225,123.858841 
	C605.575928,127.096687 609.253723,130.787460 611.718140,135.710114 
	C611.994812,136.003281 612.000000,136.000000 611.998169,136.001648 
	C615.695496,142.773026 614.232178,149.986847 613.823914,157.113403 
	C613.675903,159.696930 611.092834,159.866058 609.653015,160.842377 
	C608.111267,161.887878 606.045837,162.766556 603.469177,162.934601 
	C602.250549,162.999191 601.501160,163.000244 600.377075,163.002655 
	C589.630554,163.210312 581.061951,158.429016 572.810059,152.971954 
	C566.415466,148.743088 560.689758,144.045181 557.022034,136.788757 
	C554.236145,131.277084 553.539185,125.684135 553.434204,119.937523 
	C553.337219,114.622597 560.374573,109.430923 567.244690,109.204193 
	C571.432861,109.065964 575.511536,109.902573 579.484192,111.278709 
	C581.360596,111.928703 583.306519,112.378220 585.610046,112.959084 
z"/>
<path fill="#014D85" opacity="1.000000" stroke="none" 
	d="
M512.261230,47.258881 
	C512.294128,44.920643 512.562378,42.840519 512.916504,40.380455 
	C514.276367,32.197384 520.545105,29.465448 529.728455,30.289255 
	C549.141479,32.030743 562.169495,43.641651 571.406555,59.629711 
	C574.730469,65.382858 575.803040,72.564705 572.286255,79.674347 
	C571.475830,80.542793 570.951599,81.086174 570.214966,81.817123 
	C556.924377,85.911140 545.049316,83.849167 533.727112,75.965088 
	C523.351990,68.740486 516.445557,59.334064 512.261230,47.258881 
z"/>
<path fill="#014A81" opacity="1.000000" stroke="none" 
	d="
M455.080261,51.687160 
	C450.720367,44.207443 446.532562,36.370060 438.850098,31.176376 
	C437.710022,30.405653 437.115784,28.827522 436.134277,27.311707 
	C445.739563,32.489014 453.362335,39.642227 455.080261,51.687160 
z"/>
<path fill="#014A81" opacity="1.000000" stroke="none" 
	d="
M544.846191,151.705231 
	C541.459900,150.581711 538.084412,148.772079 535.227661,146.302414 
	C530.962463,142.615219 525.780090,141.081650 520.331909,139.149963 
	C530.839050,137.948380 538.261047,143.695435 544.846191,151.705231 
z"/>
<path fill="#014A81" opacity="1.000000" stroke="none" 
	d="
M558.948914,173.622467 
	C557.885742,172.601624 556.487183,171.327377 555.743286,169.745300 
	C552.875305,163.646255 549.006714,158.184875 545.130981,152.319397 
	C553.282776,156.686844 557.215271,164.224960 558.948914,173.622467 
z"/>
<path fill="#014A81" opacity="1.000000" stroke="none" 
	d="
M624.223389,164.405090 
	C624.131226,162.150558 623.987488,160.315857 624.076721,158.492584 
	C624.451660,150.834991 628.675842,146.673691 636.296387,146.052292 
	C649.647949,144.963608 660.815308,149.806198 670.211304,158.851959 
	C676.554565,164.958832 682.150818,171.497055 684.834045,180.459335 
	C687.238464,188.490707 681.122192,198.818329 670.790466,198.883514 
	C651.154236,199.007416 629.959351,183.745667 624.223389,164.405090 
z"/>
<path fill="#00487E" opacity="1.000000" stroke="none" 
	d="
M572.273071,79.811462 
	C574.178772,60.913586 562.154724,42.103378 543.021057,34.931732 
	C539.313660,33.542141 535.448792,32.393608 531.555237,31.717804 
	C523.958191,30.399189 517.325500,31.899195 513.205322,39.733250 
	C512.104675,34.546394 515.528137,32.022705 519.845520,30.471365 
	C527.090698,27.867962 534.563293,28.656555 541.403198,31.331278 
	C553.469238,36.049644 563.157471,44.352036 570.529724,54.887939 
	C574.598267,60.702534 575.392700,67.915352 575.205383,75.032295 
	C575.154419,76.969215 574.147461,78.506516 572.273071,79.811462 
z"/>
<path fill="#00487E" opacity="1.000000" stroke="none" 
	d="
M603.321167,163.098450 
	C612.393250,159.961136 614.193115,152.903702 612.976562,144.218796 
	C612.632874,141.765579 612.404114,139.296234 612.059509,136.418793 
	C617.281616,142.760040 616.820557,150.367020 614.238525,157.704407 
	C612.708191,162.053009 608.415588,163.733154 603.321167,163.098450 
z"/>
<path fill="#00487E" opacity="1.000000" stroke="none" 
	d="
M611.886108,135.668243 
	C606.261353,130.867157 601.813965,124.417747 595.469971,119.896233 
	C593.068176,118.184425 590.797546,116.288506 588.234375,114.238159 
	C590.007385,113.212906 592.051697,113.296471 593.635925,114.695808 
	C600.548828,120.801918 607.897827,126.552116 611.886108,135.668243 
z"/>
</svg>